<svg width="40" height="40" viewBox="0 0 34 35" fill="none" xmlns="http://www.w3.org/2000/svg">
<path d="M1.5294 12.1413H32.4118M8.39215 1.78833V5.23931M25.549 1.78833V5.23931M6.67646 19.0432H10.1078M6.67646 25.9452H10.1078M15.2549 19.0432H18.6863M15.2549 25.9452H18.6863M23.8333 19.0432H27.2647M23.8333 25.9452H27.2647M7.0196 32.8472H26.9216C28.8433 32.8472 29.8043 32.8472 30.5382 32.471C31.1838 32.1402 31.7088 31.6122 32.0377 30.9629C32.4118 30.2248 32.4118 29.2583 32.4118 27.3256V10.7609C32.4118 8.82814 32.4118 7.86178 32.0377 7.12358C31.7088 6.47423 31.1838 5.9463 30.5382 5.61545C29.8043 5.23931 28.8433 5.23931 26.9216 5.23931H7.0196C5.09786 5.23931 4.13697 5.23931 3.40297 5.61545C2.7573 5.9463 2.23237 6.47423 1.90341 7.12358C1.5294 7.86178 1.5294 8.82814 1.5294 10.7609V27.3256C1.5294 29.2583 1.5294 30.2248 1.90341 30.9629C2.23237 31.6122 2.7573 32.1402 3.40297 32.471C4.13697 32.8472 5.09784 32.8472 7.0196 32.8472Z" stroke="black" stroke-width="3" stroke-linecap="round" stroke-linejoin="round"/>
</svg>
