<svg width="42" height="42" viewBox="0 0 42 42" fill="none" xmlns="http://www.w3.org/2000/svg">
    <path
        d="M26.3824 22.3768C27.093 22.3768 27.6691 21.7974 27.6691 21.0827C27.6691 20.368 27.093 19.7886 26.3824 19.7886H16.0882C15.3776 19.7886 14.8015 20.368 14.8015 21.0827C14.8015 21.7974 15.3776 22.3768 16.0882 22.3768H26.3824Z"
        fill="white" />
    <path fill-rule="evenodd" clip-rule="evenodd"
        d="M21.3338 2.53369H21.1368C17.1764 2.53367 14.0726 2.53366 11.651 2.8611C9.17226 3.19626 7.21634 3.89567 5.68113 5.43966C4.14591 6.98364 3.45048 8.95074 3.11722 11.4436C2.79164 13.8791 2.79165 17.0006 2.79167 20.9837V21.1818C2.79165 25.1649 2.79164 28.2863 3.11722 30.7218C3.45048 33.2146 4.14591 35.1819 5.68113 36.7258C7.21634 38.2698 9.17226 38.9691 11.651 39.3044C14.0726 39.6317 17.1764 39.6317 21.1368 39.6317H21.3338C25.2943 39.6317 28.3979 39.6317 30.8196 39.3044C33.2983 38.9691 35.2543 38.2698 36.7895 36.7258C38.3247 35.1819 39.0201 33.2146 39.3535 30.7218C39.6789 28.2863 39.6789 25.1649 39.6789 21.1818V20.9837C39.6789 17.0006 39.6789 13.8791 39.3535 11.4436C39.0201 8.95074 38.3247 6.98364 36.7895 5.43966C35.2543 3.89567 33.2983 3.19626 30.8196 2.8611C28.3979 2.53366 25.2943 2.53367 21.3338 2.53369ZM7.50089 7.26982C8.47823 6.28687 9.80054 5.72283 11.9939 5.42625C14.2243 5.12467 17.155 5.12193 21.2353 5.12193C25.3155 5.12193 28.2463 5.12467 30.4767 5.42625C32.67 5.72283 33.9923 6.28687 34.9697 7.26982C35.9471 8.25274 36.508 9.58261 36.8028 11.7885C37.1027 14.0316 37.1054 16.9791 37.1054 21.0827C37.1054 25.1863 37.1027 28.1338 36.8028 30.3769C36.508 32.5828 35.9471 33.9126 34.9697 34.8956C33.9923 35.8786 32.67 36.4427 30.4767 36.7391C28.2463 37.0407 25.3155 37.0435 21.2353 37.0435C17.155 37.0435 14.2243 37.0407 11.9939 36.7391C9.80054 36.4427 8.47823 35.8786 7.50089 34.8956C6.52353 33.9126 5.96269 32.5828 5.6678 30.3769C5.36793 28.1338 5.3652 25.1863 5.3652 21.0827C5.3652 16.9791 5.36793 14.0316 5.6678 11.7885C5.96269 9.58261 6.52353 8.25274 7.50089 7.26982Z"
        fill="white" />
</svg>
    