<svg width="35" height="35" viewBox="0 0 35 35" fill="none" xmlns="http://www.w3.org/2000/svg">
<g clip-path="url(#clip0_425_2777)">
<path d="M28.4375 0H6.5625C2.94438 0 0 2.94438 0 6.5625V28.4375C0 32.0556 2.94438 35 6.5625 35H28.4375C32.0556 35 35 32.0556 35 28.4375V6.5625C35 2.94438 32.0556 0 28.4375 0ZM33.5417 28.4375C33.5417 31.2521 31.2521 33.5417 28.4375 33.5417H6.5625C3.74792 33.5417 1.45833 31.2521 1.45833 28.4375V6.5625C1.45833 3.74792 3.74792 1.45833 6.5625 1.45833H28.4375C31.2521 1.45833 33.5417 3.74792 33.5417 6.5625V28.4375ZM21.1458 10.2083C19.9398 10.2083 18.9583 11.1898 18.9583 12.3958V22.6042C18.9583 23.8102 19.9398 24.7917 21.1458 24.7917C22.3519 24.7917 23.3333 23.8102 23.3333 22.6042V12.3958C23.3333 11.1898 22.3519 10.2083 21.1458 10.2083ZM21.875 22.6042C21.875 23.0052 21.5469 23.3333 21.1458 23.3333C20.7448 23.3333 20.4167 23.0052 20.4167 22.6042V12.3958C20.4167 11.9933 20.7448 11.6667 21.1458 11.6667C21.5469 11.6667 21.875 11.9933 21.875 12.3958V22.6042ZM13.8542 10.2083C12.6481 10.2083 11.6667 11.1898 11.6667 12.3958V22.6042C11.6667 23.8102 12.6481 24.7917 13.8542 24.7917C15.0602 24.7917 16.0417 23.8102 16.0417 22.6042V12.3958C16.0417 11.1898 15.0602 10.2083 13.8542 10.2083ZM14.5833 22.6042C14.5833 23.0052 14.2567 23.3333 13.8542 23.3333C13.4517 23.3333 13.125 23.0052 13.125 22.6042V12.3958C13.125 11.9933 13.4517 11.6667 13.8542 11.6667C14.2567 11.6667 14.5833 11.9933 14.5833 12.3958V22.6042Z" fill="white"/>
</g>
<defs>
<clipPath id="clip0_425_2777">
<rect width="35" height="35" fill="white"/>
</clipPath>
</defs>
</svg>
