<svg width="40" height="40" viewBox="0 0 40 40" fill="none" xmlns="http://www.w3.org/2000/svg">
<g clip-path="url(#clip0_428_2785)">
<path d="M10.8333 0C9.28624 0 7.80251 0.614581 6.70854 1.70854C5.61458 2.80251 5 4.28624 5 5.83333V34.1667C5 35.7138 5.61458 37.1975 6.70854 38.2915C7.80251 39.3854 9.28624 40 10.8333 40C12.3804 40 13.8642 39.3854 14.9581 38.2915C16.0521 37.1975 16.6667 35.7138 16.6667 34.1667V5.83333C16.6667 4.28624 16.0521 2.80251 14.9581 1.70854C13.8642 0.614581 12.3804 0 10.8333 0Z" fill="white"/>
<path d="M29.1667 0C27.6196 0 26.1359 0.614581 25.0419 1.70854C23.948 2.80251 23.3334 4.28624 23.3334 5.83333V34.1667C23.3334 35.7138 23.948 37.1975 25.0419 38.2915C26.1359 39.3854 27.6196 40 29.1667 40C30.7138 40 32.1975 39.3854 33.2915 38.2915C34.3855 37.1975 35 35.7138 35 34.1667V5.83333C35 4.28624 34.3855 2.80251 33.2915 1.70854C32.1975 0.614581 30.7138 0 29.1667 0Z" fill="white"/>
</g>
<defs>
<clipPath id="clip0_428_2785">
<rect width="40" height="40" fill="white"/>
</clipPath>
</defs>
</svg>
