<svg width="40" height="40" viewBox="0 0 40 40" fill="none" xmlns="http://www.w3.org/2000/svg">
<g clip-path="url(#clip0_430_2790)">
<path d="M30.8333 40H9.16667C6.73633 39.9974 4.40629 39.0307 2.68778 37.3122C0.969268 35.5937 0.00264695 33.2637 0 30.8333L0 9.16667C0.00264695 6.73633 0.969268 4.40629 2.68778 2.68778C4.40629 0.969268 6.73633 0.00264695 9.16667 0L30.8333 0C33.2637 0.00264695 35.5937 0.969268 37.3122 2.68778C39.0307 4.40629 39.9974 6.73633 40 9.16667V30.8333C39.9974 33.2637 39.0307 35.5937 37.3122 37.3122C35.5937 39.0307 33.2637 39.9974 30.8333 40ZM9.16667 5C8.0616 5 7.00179 5.43899 6.22039 6.22039C5.43899 7.00179 5 8.0616 5 9.16667V30.8333C5 31.9384 5.43899 32.9982 6.22039 33.7796C7.00179 34.561 8.0616 35 9.16667 35H30.8333C31.9384 35 32.9982 34.561 33.7796 33.7796C34.561 32.9982 35 31.9384 35 30.8333V9.16667C35 8.0616 34.561 7.00179 33.7796 6.22039C32.9982 5.43899 31.9384 5 30.8333 5H9.16667ZM13.32 15.565V24.435C13.32 24.8253 13.4225 25.2087 13.6172 25.5469C13.812 25.8851 14.0921 26.1662 14.4296 26.3621C14.7671 26.558 15.1502 26.6619 15.5404 26.6633C15.9307 26.6646 16.3144 26.5635 16.6533 26.37L25.5317 21.935C25.8729 21.7401 26.1565 21.4585 26.3537 21.1187C26.551 20.7789 26.6549 20.3929 26.6549 20C26.6549 19.6071 26.551 19.2211 26.3537 18.8813C26.1565 18.5415 25.8729 18.2599 25.5317 18.065L16.6533 13.63C16.3144 13.4365 15.9307 13.3354 15.5404 13.3367C15.1502 13.3381 14.7671 13.442 14.4296 13.6379C14.0921 13.8338 13.812 14.1149 13.6172 14.4531C13.4225 14.7913 13.32 15.1747 13.32 15.565Z" fill="white"/>
</g>
<defs>
<clipPath id="clip0_430_2790">
<rect width="40" height="40" fill="white"/>
</clipPath>
</defs>
</svg>
