<svg width="25" height="25" viewBox="0 0 25 25" fill="none" xmlns="http://www.w3.org/2000/svg">
<g clip-path="url(#clip0_244_2214)">
<path d="M21.3387 3.66133C16.4569 -1.22046 8.54204 -1.22046 3.66128 3.66143C-1.22046 8.54316 -1.22046 16.458 3.66147 21.3387C8.54204 26.2205 16.4569 26.2205 21.3387 21.3386C26.2205 16.458 26.2205 8.54316 21.3387 3.66133ZM19.8656 19.8654C15.7974 23.9337 9.20176 23.9337 5.13462 19.8656C1.06636 15.7983 1.06636 9.20269 5.13452 5.13452C9.20176 1.06631 15.7974 1.06631 19.8655 5.13452C23.9337 9.20273 23.9337 15.7983 19.8656 19.8654Z" fill="#004943"/>
<path d="M18.0133 7.59708L11.4582 14.1522L8.02811 10.7221C7.62133 10.3153 6.96176 10.3153 6.55497 10.7221C6.14818 11.1289 6.14818 11.7884 6.55497 12.1952L10.7216 16.3619C11.1284 16.7687 11.788 16.7687 12.1948 16.3619L19.4864 9.07023C19.8932 8.66344 19.8932 8.00387 19.4864 7.59708C19.0796 7.1903 18.4201 7.1903 18.0133 7.59708Z" fill="#004943"/>
</g>
<defs>
<clipPath id="clip0_244_2214">
<rect width="40" height="40" fill="white"/>
</clipPath>
</defs>
</svg>
