<svg width="40" height="40" viewBox="0 0 40 37" fill="none" xmlns="http://www.w3.org/2000/svg">
    <path d="M21.25 14.2131C21.25 13.586 20.6903 13.0776 20 13.0776C19.3097 13.0776 18.75 13.586 18.75 14.2131V17.6197H15C14.3097 17.6197 13.75 18.1281 13.75 18.7552C13.75 19.3823 14.3097 19.8907 15 19.8907H18.75V23.2972C18.75 23.9243 19.3097 24.4327 20 24.4327C20.6903 24.4327 21.25 23.9243 21.25 23.2972V19.8907H25C25.6903 19.8907 26.25 19.3823 26.25 18.7552C26.25 18.1281 25.6903 17.6197 25 17.6197H21.25V14.2131Z" fill="white"/>
    <path fill-rule="evenodd" clip-rule="evenodd" d="M20.0957 2.47949H19.9043C16.0571 2.47948 13.042 2.47946 10.6895 2.76677C8.28162 3.06085 6.38159 3.67454 4.89024 5.02929C3.39889 6.38403 2.72332 8.11003 2.39959 10.2974C2.0833 12.4344 2.08332 15.1732 2.08334 18.6681V18.8419C2.08332 22.3369 2.0833 25.0757 2.39959 27.2127C2.72332 29.4 3.39889 31.1261 4.89024 32.4809C6.38159 33.8356 8.28162 34.4492 10.6895 34.7434C13.042 35.0306 16.0571 35.0306 19.9043 35.0306H20.0957C23.943 35.0306 26.958 35.0306 29.3105 34.7434C31.7183 34.4492 33.6185 33.8356 35.1098 32.4809C36.6012 31.1261 37.2767 29.4 37.6005 27.2127C37.9167 25.0757 37.9167 22.3369 37.9167 18.8419V18.6681C37.9167 15.1733 37.9167 12.4344 37.6005 10.2974C37.2767 8.11003 36.6012 6.38403 35.1098 5.02929C33.6185 3.67454 31.7183 3.06085 29.3105 2.76677C26.958 2.47946 23.943 2.47948 20.0957 2.47949ZM6.658 6.63513C7.60742 5.77266 8.89195 5.27775 11.0226 5.01752C13.1893 4.75291 16.0363 4.7505 20 4.7505C23.9637 4.7505 26.8107 4.75291 28.9773 5.01752C31.108 5.27775 32.3925 5.77266 33.342 6.63513C34.2915 7.49759 34.8363 8.66446 35.1227 10.6C35.414 12.5682 35.4167 15.1544 35.4167 18.755C35.4167 22.3556 35.414 24.9419 35.1227 26.9101C34.8363 28.8456 34.2915 30.0124 33.342 30.875C32.3925 31.7375 31.108 32.2324 28.9773 32.4925C26.8107 32.7572 23.9637 32.7596 20 32.7596C16.0363 32.7596 13.1893 32.7572 11.0226 32.4925C8.89195 32.2324 7.60742 31.7375 6.658 30.875C5.70857 30.0124 5.16375 28.8456 4.87729 26.9101C4.58599 24.9419 4.58334 22.3556 4.58334 18.755C4.58334 15.1544 4.58599 12.5682 4.87729 10.6C5.16375 8.66446 5.70857 7.49759 6.658 6.63513Z" fill="white"/>
</svg>
    