<svg xmlns="http://www.w3.org/2000/svg" style="display: none;">
        <symbol id="home" viewBox="0 0 24 24">
            <path d="M15 26.5205C14.3097 26.5205 13.75 27.0289 13.75 27.656C13.75 28.2831 14.3097 28.7915 15 28.7915H25C25.6903 28.7915 26.25 28.2831 26.25 27.656C26.25 27.0289 25.6903 26.5205 25 26.5205H15Z" fill="red"/>
            <path fill-rule="evenodd" clip-rule="evenodd" d="M20 2.29639C18.8198 2.29639 17.7475 2.60346 16.5842 3.11734C15.4597 3.6141 14.1607 4.34648 12.5381 5.26129L9.0938 7.20312C7.55848 8.06869 6.32906 8.76179 5.3815 9.421C4.40025 10.1036 3.64658 10.7989 3.10218 11.7023C2.55891 12.6039 2.31428 13.5632 2.19698 14.6971C2.08331 15.796 2.08331 17.1398 2.08333 18.8251V21.2667C2.08331 24.1491 2.0833 26.4245 2.33783 28.2034C2.59895 30.0284 3.1476 31.5017 4.38726 32.6664C5.63263 33.8367 7.21743 34.3595 9.17934 34.6074C11.0808 34.8475 13.5093 34.8475 16.5697 34.8475H23.4302C26.4907 34.8475 28.9192 34.8475 30.8207 34.6074C32.7825 34.3595 34.3673 33.8367 35.6127 32.6664C36.8523 31.5017 37.401 30.0284 37.6622 28.2034C37.9167 26.4245 37.9167 24.1492 37.9167 21.2667V18.8251C37.9167 17.1398 37.9167 15.796 37.803 14.6971C37.6857 13.5632 37.441 12.6039 36.8978 11.7023C36.3535 10.7989 35.5998 10.1036 34.6185 9.421C33.671 8.76179 32.4415 8.06871 30.9062 7.20314L27.4618 5.26128C25.8393 4.34648 24.5402 3.61409 23.4157 3.11734C22.2525 2.60346 21.1802 2.29639 20 2.29639ZM13.7992 7.22314C15.4921 6.26869 16.6825 5.59923 17.6775 5.15967C18.647 4.73141 19.3337 4.56739 20 4.56739C20.6663 4.56739 21.353 4.73141 22.3225 5.15966C23.3175 5.59923 24.5078 6.26869 26.2008 7.22314L29.5342 9.1024C31.1355 10.0052 32.2598 10.6406 33.0985 11.224C33.9145 11.7917 34.3838 12.2601 34.7048 12.7928C35.027 13.3273 35.215 13.9522 35.314 14.9096C35.4153 15.89 35.4167 17.1273 35.4167 18.8806V21.1836C35.4167 24.1675 35.4142 26.2952 35.183 27.9108C34.956 29.4974 34.5283 30.4181 33.8153 31.0881C33.1082 31.7526 32.1452 32.1471 30.4763 32.358C28.767 32.5739 26.5125 32.5765 23.3333 32.5765H16.6667C13.4874 32.5765 11.233 32.5739 9.52369 32.358C7.85476 32.1471 6.8919 31.7526 6.18465 31.0881C5.47168 30.4181 5.04403 29.4974 4.81698 27.9108C4.58581 26.2952 4.58333 24.1675 4.58333 21.1836V18.8806C4.58333 17.1273 4.5846 15.89 4.68601 14.9096C4.78505 13.9522 4.97308 13.3273 5.29515 12.7928C5.61608 12.2601 6.08555 11.7917 6.90153 11.224C7.74016 10.6406 8.86448 10.0052 10.4659 9.1024L13.7992 7.22314Z" fill="red"/>
        </symbol>
        <symbol id="add" width="40" height="37" viewBox="0 0 40 37" fill="none" xmlns="http://www.w3.org/2000/svg">
            <path d="M21.25 14.2131C21.25 13.586 20.6903 13.0776 20 13.0776C19.3097 13.0776 18.75 13.586 18.75 14.2131V17.6197H15C14.3097 17.6197 13.75 18.1281 13.75 18.7552C13.75 19.3823 14.3097 19.8907 15 19.8907H18.75V23.2972C18.75 23.9243 19.3097 24.4327 20 24.4327C20.6903 24.4327 21.25 23.9243 21.25 23.2972V19.8907H25C25.6903 19.8907 26.25 19.3823 26.25 18.7552C26.25 18.1281 25.6903 17.6197 25 17.6197H21.25V14.2131Z" fill="white"/>
            <path fill-rule="evenodd" clip-rule="evenodd" d="M20.0957 2.47949H19.9043C16.0571 2.47948 13.042 2.47946 10.6895 2.76677C8.28162 3.06085 6.38159 3.67454 4.89024 5.02929C3.39889 6.38403 2.72332 8.11003 2.39959 10.2974C2.0833 12.4344 2.08332 15.1732 2.08334 18.6681V18.8419C2.08332 22.3369 2.0833 25.0757 2.39959 27.2127C2.72332 29.4 3.39889 31.1261 4.89024 32.4809C6.38159 33.8356 8.28162 34.4492 10.6895 34.7434C13.042 35.0306 16.0571 35.0306 19.9043 35.0306H20.0957C23.943 35.0306 26.958 35.0306 29.3105 34.7434C31.7183 34.4492 33.6185 33.8356 35.1098 32.4809C36.6012 31.1261 37.2767 29.4 37.6005 27.2127C37.9167 25.0757 37.9167 22.3369 37.9167 18.8419V18.6681C37.9167 15.1733 37.9167 12.4344 37.6005 10.2974C37.2767 8.11003 36.6012 6.38403 35.1098 5.02929C33.6185 3.67454 31.7183 3.06085 29.3105 2.76677C26.958 2.47946 23.943 2.47948 20.0957 2.47949ZM6.658 6.63513C7.60742 5.77266 8.89195 5.27775 11.0226 5.01752C13.1893 4.75291 16.0363 4.7505 20 4.7505C23.9637 4.7505 26.8107 4.75291 28.9773 5.01752C31.108 5.27775 32.3925 5.77266 33.342 6.63513C34.2915 7.49759 34.8363 8.66446 35.1227 10.6C35.414 12.5682 35.4167 15.1544 35.4167 18.755C35.4167 22.3556 35.414 24.9419 35.1227 26.9101C34.8363 28.8456 34.2915 30.0124 33.342 30.875C32.3925 31.7375 31.108 32.2324 28.9773 32.4925C26.8107 32.7572 23.9637 32.7596 20 32.7596C16.0363 32.7596 13.1893 32.7572 11.0226 32.4925C8.89195 32.2324 7.60742 31.7375 6.658 30.875C5.70857 30.0124 5.16375 28.8456 4.87729 26.9101C4.58599 24.9419 4.58334 22.3556 4.58334 18.755C4.58334 15.1544 4.58599 12.5682 4.87729 10.6C5.16375 8.66446 5.70857 7.49759 6.658 6.63513Z" fill="white"/>
        </symbol>
</svg>
