<svg width="42" height="42" viewBox="0 0 42 42" fill="none" xmlns="http://www.w3.org/2000/svg">
    <path
        d="M22.0515 15.9062C22.0515 15.1915 21.4753 14.6121 20.7647 14.6121C20.0541 14.6121 19.4779 15.1915 19.4779 15.9062V19.7885H15.6176C14.907 19.7885 14.3309 20.3679 14.3309 21.0826C14.3309 21.7973 14.907 22.3768 15.6176 22.3768H19.4779V26.2591C19.4779 26.9738 20.0541 27.5532 20.7647 27.5532C21.4753 27.5532 22.0515 26.9738 22.0515 26.2591V22.3768H25.9118C26.6224 22.3768 27.1985 21.7973 27.1985 21.0826C27.1985 20.3679 26.6224 19.7885 25.9118 19.7885H22.0515V15.9062Z"
        fill="white" />
    <path fill-rule="evenodd" clip-rule="evenodd"
        d="M20.8632 2.53369H20.6662C16.7058 2.53367 13.602 2.53366 11.1804 2.8611C8.70166 3.19626 6.74574 3.89567 5.21053 5.43966C3.67532 6.98364 2.97988 8.95074 2.64663 11.4436C2.32104 13.8791 2.32106 17.0006 2.32108 20.9837V21.1818C2.32106 25.1649 2.32104 28.2863 2.64663 30.7218C2.97988 33.2146 3.67532 35.1819 5.21053 36.7258C6.74574 38.2698 8.70166 38.9691 11.1804 39.3044C13.602 39.6317 16.7058 39.6317 20.6662 39.6317H20.8632C24.8237 39.6317 27.9273 39.6317 30.349 39.3044C32.8277 38.9691 34.7837 38.2698 36.3189 36.7258C37.8541 35.1819 38.5495 33.2146 38.8829 30.7218C39.2083 28.2863 39.2083 25.1649 39.2083 21.1818V20.9837C39.2083 17.0006 39.2083 13.8791 38.8829 11.4436C38.5495 8.95074 37.8541 6.98364 36.3189 5.43966C34.7837 3.89567 32.8277 3.19626 30.349 2.8611C27.9273 2.53366 24.8237 2.53367 20.8632 2.53369ZM7.03029 7.26982C8.00763 6.28687 9.32995 5.72283 11.5233 5.42625C13.7537 5.12467 16.6844 5.12193 20.7647 5.12193C24.8449 5.12193 27.7757 5.12467 30.0061 5.42625C32.1994 5.72283 33.5217 6.28687 34.4991 7.26982C35.4765 8.25274 36.0374 9.58261 36.3322 11.7885C36.6321 14.0316 36.6348 16.9791 36.6348 21.0827C36.6348 25.1863 36.6321 28.1338 36.3322 30.3769C36.0374 32.5828 35.4765 33.9126 34.4991 34.8956C33.5217 35.8786 32.1994 36.4427 30.0061 36.7391C27.7757 37.0407 24.8449 37.0435 20.7647 37.0435C16.6844 37.0435 13.7537 37.0407 11.5233 36.7391C9.32995 36.4427 8.00763 35.8786 7.03029 34.8956C6.05293 33.9126 5.49209 32.5828 5.1972 30.3769C4.89733 28.1338 4.8946 25.1863 4.8946 21.0827C4.8946 16.9791 4.89733 14.0316 5.1972 11.7885C5.49209 9.58261 6.05293 8.25274 7.03029 7.26982Z"
        fill="white" />
</svg>
    