<svg width="40" height="40" viewBox="0 0 40 40" xmlns="http://www.w3.org/2000/svg">
    <path
        d="M20.3333 16.3333C24.0152 16.3333 27 13.3486 27 9.66667C27 5.98477 24.0152 3 20.3333 3C16.6514 3 13.6667 5.98477 13.6667 9.66667C13.6667 13.3486 16.6514 16.3333 20.3333 16.3333Z"
        stroke="white" stroke-width="3" />
    <path
        d="M33.6625 29.6667C33.6667 29.393 33.6667 29.115 33.6667 28.8333C33.6667 24.6912 27.6972 21.3333 20.3333 21.3333C12.9695 21.3333 7 24.6912 7 28.8333C7 32.9755 7 36.3333 20.3333 36.3333C24.0517 36.3333 26.733 36.0722 28.6667 35.6057"
        stroke="white" stroke-width="3" stroke-linecap="round" />
</svg>
    